<svg xmlns="http://www.w3.org/2000/svg" id="Layer_1" data-name="Layer 1" width="801.91" height="149.5"><defs><style>.cls-1{fill:#fff}.cls-3{fill:#fafafa}</style></defs><g id="Happy"><path class="cls-1" d="M207 79.38c1.47-4.59 2.85-8.92 2.3-13.82-.22-1.88-.83-7.3-4.78-11.12-1.06-1-3.26-2.79-17.58-4.74-6.74-.92-9.27-.93-16.33-2.08a64.52 64.52 0 0 1-11.13-2.79c-1.42-.49-2.58-1-3.38-1.29s-2-.65-3.41-1.18a63.77 63.77 0 0 1-10.32-5c-6.15-3.66-8.09-5.27-13.85-8.9-12.22-7.72-15-7.77-16.51-7.67-5.49.38-9.44 4.14-10.8 5.44-3.58 3.41-5.31 7.61-7.13 12.07-.68 1.64-1.08 3.07-1.86 5.28a117.23 117.23 0 0 0-6.42 46.24c.86 14.12 1.54 25.13 8.46 36.51 2.88 4.72 9.73 14.29 24 21.34 15.46 3.76 26.86.84 32.09-.93 12.62-4.26 20.22-12.27 30-22.53a117.61 117.61 0 0 0 24.78-39.57c.76-2.22 1.33-3.57 1.87-5.26Z" transform="translate(.01)"/><path d="M118.78 69.14c5.37.3 13.39-5.17 16.18-11.89-11.39 8.29-21.16 6.27-30.13-2.78 2.39 8.64 8.1 14.34 13.95 14.67ZM96 110.59a49.74 49.74 0 0 1 34.9 2.25 49.81 49.81 0 0 1 28.18 20.71c.12.18.41.25 1.28.75a38 38 0 0 0-4.09-21.72c-4.45-8.9-11.34-14.65-19.11-16.94-7.43-3.24-16.4-3.26-25.52.7a38 38 0 0 0-17.1 14c1 .18 1.27.31 1.46.25ZM163.07 67.48c-2.18 7 .45 16.29 4.75 19.51 4.7 3.51 12.74 2.81 20.11-2.27-12.68 1.17-21.47-3.56-24.86-17.24Z" transform="translate(.01)"/><path d="M115.34 17.53c-1.83-4.46-3.55-8.66-7.13-12.07-1.36-1.3-5.32-5.06-10.8-5.46-1.47-.1-4.29 0-16.51 7.66-5.76 3.64-7.71 5.25-13.85 8.9a63.77 63.77 0 0 1-10.32 5c-1.4.53-2.59.92-3.41 1.18s-2 .79-3.38 1.29a63.59 63.59 0 0 1-11.13 2.78C31.75 28 29.22 28 22.46 29 8.15 31 6 32.7 4.89 33.73.89 37.55.32 43 .11 44.84c-.55 4.91.83 9.24 2.3 13.83.54 1.69 1.14 3 2 5.24a117.1 117.1 0 0 0 24.78 39.57c9.73 10.26 17.33 18.26 29.94 22.53 5.24 1.77 16.64 4.69 32.1.92 14.25-7 21.11-16.61 24-21.33 6.92-11.38 7.6-22.4 8.45-36.51a117.43 117.43 0 0 0-6.45-46.24c-.77-2.26-1.23-3.68-1.89-5.32Z" transform="translate(.01)" style="fill:#1a1a1a"/><path class="cls-3" d="M33.75 59c-4.3 3.22-6.92 12.57-4.75 19.52 3.4-13.69 12.18-18.42 24.87-17.26-7.41-5.13-15.41-5.83-20.12-2.26Z" transform="translate(.01)"/><path d="M107.46 73.35a49.86 49.86 0 0 1-28.19 20.71 49.85 49.85 0 0 1-34.9 2.25c-.21-.07-.47.07-1.45.24a37.93 37.93 0 0 0 17.09 14c9.13 4 18.1 3.93 25.53.7 7.77-2.3 14.65-8 19.1-16.94a38 38 0 0 0 4.09-21.72c-.88.5-1.17.57-1.27.76Z" transform="translate(.01)" style="fill:#fefefe"/><path class="cls-3" d="M107.59 51c-2.8-6.73-10.82-12.2-16.18-11.9-5.86.33-11.56 6-14 14.67 9.05-9.09 18.78-11.11 30.18-2.77Z" transform="translate(.01)"/></g><path class="cls-1" d="M723.73 85.68v1.89h-3.66v9.53h-2.26v-9.53h-3.66v-1.89Zm12.35 11.42-.42-6.72c0-.88 0-2-.09-3.19h-.11c-.3 1-.63 2.35-1 3.4l-2 6.34h-2.35l-2.06-6.51c-.21-.88-.54-2.22-.8-3.23h-.12c0 1 0 2.14-.09 3.19l-.41 6.72h-2.19l.84-11.42h3.4l2 5.58c.25.89.46 1.73.75 2.9.29-1 .54-2 .79-2.85l2-5.63h3.21l.89 11.42ZM222.75 29.33h17.58a21 21 0 0 1 7.57 1 8.58 8.58 0 0 1 3.94 3 7.72 7.72 0 0 1 1.38 4.55 8.39 8.39 0 0 1-1.35 4.72 9 9 0 0 1-3.87 3.29 16.61 16.61 0 0 1-6.72 1.24l9 11c.73.91 1.21 1.47 1.44 1.69a6.58 6.58 0 0 0 1.79 1.14 5.47 5.47 0 0 0 2.11.39h.62v2.05h-7.76L236 47.13h-4.37v10.49a11.57 11.57 0 0 0 .12 2.2 2 2 0 0 0 .87 1.17 5.26 5.26 0 0 0 2.33.34h.88v2.05h-13v-2.05H224a5.72 5.72 0 0 0 1.77-.17 1.91 1.91 0 0 0 .81-.6 2.58 2.58 0 0 0 .5-1.08c0-.18.06-1 .07-2.47V34.72a5.69 5.69 0 0 0-.29-2.13 1.94 1.94 0 0 0-.82-.93 4.15 4.15 0 0 0-1.82-.28h-1.39Zm8.84 2.67v12.81h7a19.62 19.62 0 0 0 5-.44 6 6 0 0 0 3.24-2.15 6.4 6.4 0 0 0 1.18-4 6.55 6.55 0 0 0-.85-3.46 5.41 5.41 0 0 0-2.34-2.1 10.83 10.83 0 0 0-4.41-.69ZM270.48 39.24a12.41 12.41 0 0 1 6.21 1.49 10.52 10.52 0 0 1 4.14 4.34 13.73 13.73 0 0 1 1.52 6.52 13.38 13.38 0 0 1-1.56 6.52 10.69 10.69 0 0 1-4.22 4.36 12.84 12.84 0 0 1-6.38 1.5q-5.91 0-8.88-3.69a13.36 13.36 0 0 1-3-8.66 13.32 13.32 0 0 1 1.53-6.46 10.92 10.92 0 0 1 4.31-4.37 12.72 12.72 0 0 1 6.33-1.55Zm-.2 2.37a6.06 6.06 0 0 0-4.71 2.19q-2.44 2.75-2.44 8c0 3.36.69 5.91 2.08 7.67a6.19 6.19 0 0 0 5.1 2.34 6.4 6.4 0 0 0 3.7-1.1 7.62 7.62 0 0 0 2.62-3.5 14.59 14.59 0 0 0 1-5.65 14.47 14.47 0 0 0-1.07-5.69 6.62 6.62 0 0 0-6.28-4.22ZM307.74 56.57l1.56 1.27q-4.59 6.13-11 6.13a11.31 11.31 0 0 1-8.45-3.56 12.29 12.29 0 0 1-3.44-8.87 12.62 12.62 0 0 1 1.6-6.36 11.14 11.14 0 0 1 4.44-4.38 13.36 13.36 0 0 1 6.55-1.56 11.55 11.55 0 0 1 7 2.06q2.81 2.07 2.81 4.16a2.26 2.26 0 0 1-.66 1.74 2.13 2.13 0 0 1-1.49.61 1.78 1.78 0 0 1-.86-.22 3.26 3.26 0 0 1-.85-.71 7.26 7.26 0 0 1-.71-1.37 12 12 0 0 0-1-1.9 5.33 5.33 0 0 0-4.34-2.1 6.92 6.92 0 0 0-3.9 1.15 7.76 7.76 0 0 0-2.8 3.34 12.45 12.45 0 0 0-1 5.33 10.93 10.93 0 0 0 2.52 7.67 6.93 6.93 0 0 0 5.3 2.45 9.14 9.14 0 0 0 2.87-.48 10.21 10.21 0 0 0 2.75-1.4 23.88 23.88 0 0 0 3.1-3ZM311.79 31.65v-2a16.23 16.23 0 0 0 6.45-2.05h1.87v24.33l9-7.12c1.43-1.14 2.14-1.9 2.14-2.27s-.15-.41-.46-.54a5.09 5.09 0 0 0-1.44-.12h-1.29v-2.05h12.38v2.05a10.69 10.69 0 0 0-3.32.42 11 11 0 0 0-2.89 1.7l-7.06 5.43 8.34 9.09a12.94 12.94 0 0 0 1.95 1.86 4.8 4.8 0 0 0 1.51.74 10 10 0 0 0 2.37.23v2.05h-13v-2.07h1a4.54 4.54 0 0 0 1.88-.23.69.69 0 0 0 .39-.62c0-.26-.25-.64-.74-1.13l-.26-.29-6.5-7.44-4 3v3.2a6.51 6.51 0 0 0 .27 2.35 1.82 1.82 0 0 0 .84.85 5.49 5.49 0 0 0 2.21.29h.91v2.05h-12.55v-2.03a12.86 12.86 0 0 0 2.61-.17 2 2 0 0 0 1.23-.95 6 6 0 0 0 .38-2.64V31.65ZM342.89 31.65v-2a15.13 15.13 0 0 0 6.47-2.05h1.81v30.02a7.1 7.1 0 0 0 .24 2.4 2.06 2.06 0 0 0 .93 1 5.84 5.84 0 0 0 2.34.31h.79v2.05h-12.58v-2.05h1.27A3.57 3.57 0 0 0 346 61a2.05 2.05 0 0 0 .85-1 8 8 0 0 0 .26-2.53V31.65ZM358 43.32v-2a19.82 19.82 0 0 0 3.4-.67 18.53 18.53 0 0 0 3.14-1.38h1.78v19.55a3.26 3.26 0 0 0 .29 1.54 1.73 1.73 0 0 0 .82.74 5.26 5.26 0 0 0 1.92.23h1.15v2.05H358v-2.05h1a5.31 5.31 0 0 0 2.19-.29 1.65 1.65 0 0 0 .8-.83 8.33 8.33 0 0 0 .23-2.51V43.32Zm6.2-15.09a2.74 2.74 0 0 1 2 .82 2.68 2.68 0 0 1 .83 2 2.83 2.83 0 0 1-2.83 2.83 2.77 2.77 0 0 1-2-.83 2.73 2.73 0 0 1-.83-2 2.68 2.68 0 0 1 .83-2 2.76 2.76 0 0 1 1.96-.82ZM373.17 43.32v-2a17.68 17.68 0 0 0 3.24-.59 18 18 0 0 0 3.1-1.46h1.76v4.64a23.49 23.49 0 0 1 5.5-3.68 11.81 11.81 0 0 1 4.62-1 8.68 8.68 0 0 1 3.53.67 6.61 6.61 0 0 1 2.5 1.82 6 6 0 0 1 1.28 2.61 14 14 0 0 1 .2 2.74v10.75a6.7 6.7 0 0 0 .28 2.48 1.65 1.65 0 0 0 .89.79 11 11 0 0 0 3 .24v2.05h-12.55v-2.05h.69a6.1 6.1 0 0 0 2.39-.33 1.93 1.93 0 0 0 .92-.93 7.27 7.27 0 0 0 .28-2.49v-9a10.89 10.89 0 0 0-.46-3.85 3.74 3.74 0 0 0-1.53-1.73 5.14 5.14 0 0 0-2.75-.67 10.34 10.34 0 0 0-4.22 1 16.21 16.21 0 0 0-4.35 3V57.6a7.37 7.37 0 0 0 .28 2.54 1.89 1.89 0 0 0 .92 1 6.51 6.51 0 0 0 2.34.24h.71v2.05h-12.6v-2.1h.61a6.92 6.92 0 0 0 2.49-.3 1.76 1.76 0 0 0 .93-1.09 12.35 12.35 0 0 0 .15-2.68V43.32ZM422.58 29.33H436q6.13 0 8.46.78a10.23 10.23 0 0 1 4.8 3.17 8.58 8.58 0 0 1 1.93 5.72 9 9 0 0 1-1.44 5.1 9.82 9.82 0 0 1-4.22 3.67q-2.47 1.09-7.81 1.09h-6.23v8.74a8 8 0 0 0 .22 2.46 1.83 1.83 0 0 0 .81 1 4.92 4.92 0 0 0 2.07.28h1.17v2.05h-13.18v-2.06h.8a6.22 6.22 0 0 0 2.3-.28 1.74 1.74 0 0 0 .89-.88 6 6 0 0 0 .28-2.25V34.63a5.8 5.8 0 0 0-.26-2.18 1.57 1.57 0 0 0-.85-.81 6.76 6.76 0 0 0-2.36-.26h-.8Zm8.91 2.67v14.27h5.26a15.14 15.14 0 0 0 5.59-.71 5.91 5.91 0 0 0 2.66-2.45 7.78 7.78 0 0 0 1-4.11 7.27 7.27 0 0 0-1.22-4.29 6.09 6.09 0 0 0-3.33-2.33 25.76 25.76 0 0 0-5.72-.41ZM474 57.09l1.57 1.27a21.07 21.07 0 0 1-3.46 3.36 11.48 11.48 0 0 1-3.11 1.75 11.08 11.08 0 0 1-3.49.5 12 12 0 0 1-6.1-1.46 11.74 11.74 0 0 1-4.42-4.4 12.71 12.71 0 0 1-1.54-6.4 13.54 13.54 0 0 1 1.49-6.59 11 11 0 0 1 4.16-4.31 12 12 0 0 1 6.19-1.57 11.5 11.5 0 0 1 4.54.82 8.24 8.24 0 0 1 3.27 2.46 10.23 10.23 0 0 1 2 3.76 14 14 0 0 1 .4 3.21h-17.33c0 .8-.07 1.4-.07 1.79a13.28 13.28 0 0 0 1.08 5.49 7.81 7.81 0 0 0 2.82 3.55 7.26 7.26 0 0 0 4 1.14 8.06 8.06 0 0 0 3.68-.9 17.74 17.74 0 0 0 4.32-3.47Zm-3.12-9.87a9.46 9.46 0 0 0-1-3.32 4.86 4.86 0 0 0-1.9-1.71 6 6 0 0 0-2.77-.63 6.66 6.66 0 0 0-2.88.63 6.27 6.27 0 0 0-2.24 1.81 10.18 10.18 0 0 0-1.55 3.27ZM479.12 43.32v-2a14.2 14.2 0 0 0 3.17-.59 17 17 0 0 0 3.16-1.46h1.83v4.61a13.48 13.48 0 0 1 4-3.37 8.77 8.77 0 0 1 4.12-1.24 4.39 4.39 0 0 1 2.86.85 2.6 2.6 0 0 1 1 2.08 2.09 2.09 0 0 1-.7 1.55 2.3 2.3 0 0 1-1.67.67 2.16 2.16 0 0 1-.76-.12 4.81 4.81 0 0 1-.92-.54 4.5 4.5 0 0 0-2.25-.88 4.77 4.77 0 0 0-2.69 1 15.21 15.21 0 0 0-2.9 2.59v11.25a7.88 7.88 0 0 0 .16 2 2.13 2.13 0 0 0 .52.9 2.07 2.07 0 0 0 .91.55 6.74 6.74 0 0 0 1.88.17h.8v2.05H479.1v-2.06h1a4.57 4.57 0 0 0 2-.26 2.31 2.31 0 0 0 .94-1 6 6 0 0 0 .31-2.33V43.32ZM501 39.83h4.17v-3.67a8.25 8.25 0 0 1 2.5-6.19 9.06 9.06 0 0 1 6.54-2.4 6.83 6.83 0 0 1 4.18 1.12 3.11 3.11 0 0 1 1.5 2.44 2 2 0 0 1-2.1 2.08 3.16 3.16 0 0 1-1.39-.29 9.36 9.36 0 0 1-1.8-1.47 3.77 3.77 0 0 0-2.47-1.22 2.32 2.32 0 0 0-1.45.5 3.1 3.1 0 0 0-1 1.47 9 9 0 0 0-.36 3v4.67h4.59v2.49h-4.59v15.8a6.15 6.15 0 0 0 .25 2.19 1.4 1.4 0 0 0 .73.76 6.9 6.9 0 0 0 2.27.22h1v2.05H501v-2.05h.75a7.55 7.55 0 0 0 2.46-.24 1.45 1.45 0 0 0 .75-.79 7.64 7.64 0 0 0 .21-2.51V42.32H501ZM529.46 39.24a12.42 12.42 0 0 1 6.22 1.49 10.52 10.52 0 0 1 4.14 4.34 13.72 13.72 0 0 1 1.51 6.52 13.48 13.48 0 0 1-1.55 6.52 10.69 10.69 0 0 1-4.22 4.36 12.88 12.88 0 0 1-6.39 1.5q-5.91 0-8.87-3.69a13.37 13.37 0 0 1-3-8.66 13.21 13.21 0 0 1 1.54-6.46 10.79 10.79 0 0 1 4.31-4.37 12.68 12.68 0 0 1 6.31-1.55Zm-.19 2.37a6 6 0 0 0-4.71 2.19q-2.44 2.75-2.44 8c0 3.36.69 5.91 2.07 7.67a6.2 6.2 0 0 0 5.1 2.34 6.37 6.37 0 0 0 3.7-1.1 7.56 7.56 0 0 0 2.63-3.5 14.77 14.77 0 0 0 1-5.65 14.29 14.29 0 0 0-1.08-5.69 6.62 6.62 0 0 0-6.27-4.22ZM545.11 43.32v-2a14.2 14.2 0 0 0 3.17-.59 17 17 0 0 0 3.16-1.46h1.83v4.61a13.48 13.48 0 0 1 4-3.37 8.81 8.81 0 0 1 4.12-1.24 4.39 4.39 0 0 1 2.86.85 2.6 2.6 0 0 1 1.05 2.08 2.09 2.09 0 0 1-.7 1.55 2.3 2.3 0 0 1-1.67.67 2.16 2.16 0 0 1-.76-.12 4.81 4.81 0 0 1-.92-.54 4.5 4.5 0 0 0-2.25-.88 4.77 4.77 0 0 0-2.69 1 15.21 15.21 0 0 0-2.9 2.59v11.25a7.88 7.88 0 0 0 .16 2 2.13 2.13 0 0 0 .52.9 2.07 2.07 0 0 0 .91.55 6.74 6.74 0 0 0 1.88.17h.8v2.05h-12.59v-2.06h1a4.57 4.57 0 0 0 2-.26 2.31 2.31 0 0 0 .94-1 6 6 0 0 0 .31-2.33V43.32ZM567.06 43.37v-2.08a13.91 13.91 0 0 0 6.35-2h1.81v4.1a26.37 26.37 0 0 1 4.34-3 10.53 10.53 0 0 1 4.57-1.15 8 8 0 0 1 2.92.55 7.08 7.08 0 0 1 2.29 1.35 6.57 6.57 0 0 1 1.48 2.2 18.16 18.16 0 0 1 4.75-3.19 11.33 11.33 0 0 1 4.43-.91 7.89 7.89 0 0 1 3.79.89 5.8 5.8 0 0 1 2.4 2.23 8.39 8.39 0 0 1 .74 3.93v11.33a17.22 17.22 0 0 0 .07 2.08 2 2 0 0 0 .53.88 2.21 2.21 0 0 0 .91.58 6.68 6.68 0 0 0 1.89.17h.78v2.05h-12.24v-2.05a8.26 8.26 0 0 0 2.73-.3 1.83 1.83 0 0 0 .92-.92 6.47 6.47 0 0 0 .31-2.49V46.86a7.41 7.41 0 0 0-.37-2.84 2.93 2.93 0 0 0-1.31-1.3 4.7 4.7 0 0 0-2.33-.53 8.33 8.33 0 0 0-3.65.93 13.77 13.77 0 0 0-4 2.86v11.64a9.22 9.22 0 0 0 .16 2.21 1.88 1.88 0 0 0 .53.88 2.08 2.08 0 0 0 .88.49 13 13 0 0 0 2.43.13v2.05h-12v-2.05h.68a4.38 4.38 0 0 0 2-.34 2.31 2.31 0 0 0 .94-1.05 6.73 6.73 0 0 0 .25-2.32v-10.4a8.8 8.8 0 0 0-.36-3.1 3 3 0 0 0-1.36-1.37 4.74 4.74 0 0 0-2.34-.56 7.35 7.35 0 0 0-3.21.78 17.82 17.82 0 0 0-4.4 3v12.56a3.41 3.41 0 0 0 .3 1.64 2.2 2.2 0 0 0 1 .85 4.25 4.25 0 0 0 1.8.31h.91v2.05h-12.27v-2.05h.66a5.88 5.88 0 0 0 2.21-.26 2.21 2.21 0 0 0 1.11-1.18 7.5 7.5 0 0 0 .2-2.27V43.37ZM613.94 43.32v-2a19.82 19.82 0 0 0 3.4-.67 18.53 18.53 0 0 0 3.14-1.38h1.78v19.55a3.26 3.26 0 0 0 .29 1.54 1.73 1.73 0 0 0 .82.74 5.26 5.26 0 0 0 1.92.23h1.15v2.05h-12.5v-2.05h1a5.31 5.31 0 0 0 2.19-.29 1.65 1.65 0 0 0 .8-.83 8.33 8.33 0 0 0 .23-2.51V43.32Zm6.2-15.09a2.72 2.72 0 0 1 2 .82 2.68 2.68 0 0 1 .83 2 2.83 2.83 0 0 1-4.83 2 2.7 2.7 0 0 1-.83-2 2.64 2.64 0 0 1 .83-2 2.72 2.72 0 0 1 2-.82ZM629.15 43.32v-2a17.68 17.68 0 0 0 3.24-.59 18 18 0 0 0 3.1-1.46h1.76v4.64a23.49 23.49 0 0 1 5.5-3.68 11.81 11.81 0 0 1 4.62-1 8.68 8.68 0 0 1 3.53.67 6.61 6.61 0 0 1 2.5 1.82 5.92 5.92 0 0 1 1.28 2.61 14 14 0 0 1 .2 2.74v10.75a6.7 6.7 0 0 0 .28 2.48 1.65 1.65 0 0 0 .89.79 11 11 0 0 0 3 .24v2.05H646.5v-2.05h.69a6.1 6.1 0 0 0 2.39-.31 1.93 1.93 0 0 0 .92-.93 7.27 7.27 0 0 0 .28-2.49v-9a11.2 11.2 0 0 0-.45-3.85 3.82 3.82 0 0 0-1.54-1.75 5.14 5.14 0 0 0-2.75-.67 10.34 10.34 0 0 0-4.22 1 16.21 16.21 0 0 0-4.35 3V57.6a7.63 7.63 0 0 0 .28 2.54 1.89 1.89 0 0 0 .92 1 6.51 6.51 0 0 0 2.34.24h.71v2.05h-12.6v-2.1h.62a6.89 6.89 0 0 0 2.48-.3 1.76 1.76 0 0 0 .93-1.09 12.35 12.35 0 0 0 .15-2.68V43.32ZM681 41.75a7.93 7.93 0 0 1 2.23-1.9 4.43 4.43 0 0 1 2.09-.61 2.18 2.18 0 0 1 1.48.52 1.67 1.67 0 0 1 .59 1.29 1.79 1.79 0 0 1-.53 1.31 1.86 1.86 0 0 1-1.37.54 4.9 4.9 0 0 1-.93-.12 5.14 5.14 0 0 0-1.15-.17 2 2 0 0 0-1.27.56 6.53 6.53 0 0 1 1.52 4.29 7.51 7.51 0 0 1-2.84 5.84 10.5 10.5 0 0 1-7.16 2.47 12.48 12.48 0 0 1-4.82-1 14.6 14.6 0 0 0-1.84 1.4 1.38 1.38 0 0 0-.34.89 1.36 1.36 0 0 0 .73 1.17 10.27 10.27 0 0 0 3.66 1l7.07 1.05a25.24 25.24 0 0 1 4.72 1.22 7.41 7.41 0 0 1 3.43 2.22 5.15 5.15 0 0 1 1.1 3.28 5.87 5.87 0 0 1-3 5.15q-3.78 2.47-11.24 2.47a20.23 20.23 0 0 1-6.35-.83 8.74 8.74 0 0 1-3.78-2.32 3.43 3.43 0 0 1-1-2.27 5.17 5.17 0 0 1 1-3 21.86 21.86 0 0 1 4.58-4.1 9.28 9.28 0 0 1-3.32-1.37 2.88 2.88 0 0 1-1.26-2.24 3.06 3.06 0 0 1 .23-1.18 3.86 3.86 0 0 1 .77-1.11 15.26 15.26 0 0 1 1.92-1.53c.58-.4 1-.71 1.24-.9a9.21 9.21 0 0 1-2.69-2.84 6.83 6.83 0 0 1-.9-3.45 7.29 7.29 0 0 1 2.4-5.41 10.75 10.75 0 0 1 7.84-2.83 12 12 0 0 1 3.84.55 10.94 10.94 0 0 1 3.35 1.96Zm-11.33 21a16.14 16.14 0 0 0-3.08 3.25 4.51 4.51 0 0 0-.77 2.39 2.88 2.88 0 0 0 .77 1.89 5.55 5.55 0 0 0 2.62 1.5 15.48 15.48 0 0 0 4.67.59 19.89 19.89 0 0 0 5.71-.72 7.57 7.57 0 0 0 3.41-1.89 3.07 3.07 0 0 0 .76-2.08 2.55 2.55 0 0 0-.62-1.73 5.31 5.31 0 0 0-2.35-1.24 26.2 26.2 0 0 0-3.21-.76Zm3.89-21.19a5.43 5.43 0 0 0-4.06 1.73 5.93 5.93 0 0 0-1.66 4.29 6.22 6.22 0 0 0 .76 3.08 5.53 5.53 0 0 0 2.12 2.17 5.67 5.67 0 0 0 5.79 0 5.62 5.62 0 0 0 2.13-2.17 6.26 6.26 0 0 0 .75-3.07 6 6 0 0 0-1.63-4.35 5.63 5.63 0 0 0-4.17-1.73ZM718.34 29.33h4l10.6 28.47a7.16 7.16 0 0 0 1.57 2.84 3.15 3.15 0 0 0 2.14.69h.53v2.05h-12.12v-2.05h1.15a3.2 3.2 0 0 0 1.54-.25 1.37 1.37 0 0 0 .71-1.17 11.48 11.48 0 0 0-.69-2.52l-2.25-6.59h-12.34l-2.66 7.38a5.87 5.87 0 0 0-.41 1.58 1.48 1.48 0 0 0 .26.86 1.64 1.64 0 0 0 .69.55 4.06 4.06 0 0 0 1.42.18h1.07v2.05h-10.18v-2.07a5.3 5.3 0 0 0 2-.28 2.74 2.74 0 0 0 1.09-.9 13.6 13.6 0 0 0 1.22-2.62Zm-4.3 19h10.52l-5.24-14.65ZM739.11 43.32v-2a14.11 14.11 0 0 0 3.16-.59 17.1 17.1 0 0 0 3.17-1.46h1.82v4.61a13.61 13.61 0 0 1 4-3.37 8.84 8.84 0 0 1 4.13-1.24 4.38 4.38 0 0 1 2.85.85 2.6 2.6 0 0 1 1.05 2.08 2.12 2.12 0 0 1-.69 1.55 2.34 2.34 0 0 1-1.68.67 2.11 2.11 0 0 1-.75-.12 5.14 5.14 0 0 1-.93-.54 4.46 4.46 0 0 0-2.25-.88 4.75 4.75 0 0 0-2.68 1 15 15 0 0 0-2.91 2.59v11.25a8.4 8.4 0 0 0 .16 2 2.15 2.15 0 0 0 .53.9 2 2 0 0 0 .9.55 6.79 6.79 0 0 0 1.88.17h.81v2.05h-12.6v-2.06h1a4.59 4.59 0 0 0 2-.26 2.37 2.37 0 0 0 .94-1 6.2 6.2 0 0 0 .3-2.33V43.32ZM767.58 31.52h1.73v8.31h7.25v2.44h-7.25V57a7.71 7.71 0 0 0 .33 2.68 2.8 2.8 0 0 0 1.12 1.32 3.21 3.21 0 0 0 1.77.51 8.91 8.91 0 0 0 5.13-2.07v2.36a11.45 11.45 0 0 1-6.48 2.2 6.92 6.92 0 0 1-3.37-.83 4.63 4.63 0 0 1-2-2 9.69 9.69 0 0 1-.55-3.91v-15h-4.28v-2.04a8.34 8.34 0 0 0 3.32-1.44 7.17 7.17 0 0 0 2-2.54 17 17 0 0 0 1.28-4.72ZM796.65 39.83h1.72l2.19 7.47-2.2.73a11.29 11.29 0 0 0-3.7-4.73 8.19 8.19 0 0 0-4.82-1.72 4.82 4.82 0 0 0-3.05.92 2.64 2.64 0 0 0-1.17 2.11 2.56 2.56 0 0 0 .85 1.93 11.36 11.36 0 0 0 3.74 1.88L795 50.1a13.76 13.76 0 0 1 5.49 3.08 5.59 5.59 0 0 1 1.44 3.76 6.24 6.24 0 0 1-1.07 3.43 7.45 7.45 0 0 1-3.15 2.63 10.65 10.65 0 0 1-4.71 1 10.85 10.85 0 0 1-7-2.35l-.51 1.76h-1.74l-3-8 2.2-.88a18.26 18.26 0 0 0 4.2 5 9.72 9.72 0 0 0 6 2.08 5.3 5.3 0 0 0 3.5-1.14 3.26 3.26 0 0 0 1.35-2.55 3.06 3.06 0 0 0-.86-2.1 8.88 8.88 0 0 0-3.42-1.82l-5.64-2a12.78 12.78 0 0 1-5.08-2.92 5.17 5.17 0 0 1-1.42-3.59 5.55 5.55 0 0 1 2.31-4.36 9 9 0 0 1 5.87-1.89 10.6 10.6 0 0 1 3.32.48 9.31 9.31 0 0 1 2.92 1.57ZM239.71 109.25v-2.66a4.57 4.57 0 0 0-1.52-3.87 6.94 6.94 0 0 0-4.28-1.16 7.91 7.91 0 0 0-2.4.33 4.48 4.48 0 0 0-1.65.9 3.56 3.56 0 0 0-.92 1.31c-.08.18-.27.87-.58 2.07-.38 1.47-1.14 2.2-2.27 2.2a2.05 2.05 0 0 1-1.58-.65 2.45 2.45 0 0 1-.6-1.74 5.1 5.1 0 0 1 1.2-3.16 8.63 8.63 0 0 1 3.65-2.57 15.23 15.23 0 0 1 5.8-1 13.41 13.41 0 0 1 5.34 1 6.81 6.81 0 0 1 3.28 2.77 9.89 9.89 0 0 1 .73 4.54v9.39a17.11 17.11 0 0 0 .12 2.6 2.81 2.81 0 0 0 .94 1.58 2.76 2.76 0 0 0 1.75.52 8.89 8.89 0 0 0 2.68-.51v2.12a13.27 13.27 0 0 1-3.64.59 7.53 7.53 0 0 1-2.91-.49 4.77 4.77 0 0 1-2-1.43 4.71 4.71 0 0 1-1-2.23 22 22 0 0 1-5.3 3.22 13 13 0 0 1-4.79.93 8 8 0 0 1-5.46-1.83 5.5 5.5 0 0 1-1.33-7.13 7.12 7.12 0 0 1 2.34-2.37 16.22 16.22 0 0 1 4.95-1.8 79.4 79.4 0 0 1 9.45-1.47Zm0 2.12c-3.78.56-6.11.94-7 1.15a13.35 13.35 0 0 0-3.81 1.34 4.89 4.89 0 0 0-1.64 1.58 3.45 3.45 0 0 0 .06 3.64 3.86 3.86 0 0 0 1.56 1.4 4.57 4.57 0 0 0 2.12.52 10.35 10.35 0 0 0 3.59-.75 24.91 24.91 0 0 0 5.13-3ZM251.17 103.32v-2a17.82 17.82 0 0 0 3.25-.59 18.38 18.38 0 0 0 3.1-1.46h1.75v4.64a23.49 23.49 0 0 1 5.5-3.68 11.81 11.81 0 0 1 4.62-1 8.77 8.77 0 0 1 3.54.67 6.77 6.77 0 0 1 2.5 1.82 6.14 6.14 0 0 1 1.28 2.61 14.2 14.2 0 0 1 .19 2.74v10.74a6.7 6.7 0 0 0 .28 2.48 1.69 1.69 0 0 0 .89.79 11 11 0 0 0 3 .24v2h-12.54v-2h.68a6.1 6.1 0 0 0 2.39-.31 1.89 1.89 0 0 0 .92-.93 7 7 0 0 0 .28-2.49v-9a11.2 11.2 0 0 0-.45-3.85 3.76 3.76 0 0 0-1.54-1.75 5.14 5.14 0 0 0-2.75-.67 10.38 10.38 0 0 0-4.22 1 16.21 16.21 0 0 0-4.35 3v11.28a7.63 7.63 0 0 0 .28 2.54 1.93 1.93 0 0 0 .92 1 6.51 6.51 0 0 0 2.34.24h.71v2h-12.6v-2h.62a6.85 6.85 0 0 0 2.48-.3 1.76 1.76 0 0 0 .93-1.09 12.35 12.35 0 0 0 .15-2.68v-13.99ZM299.36 91.7v-2.08a15.07 15.07 0 0 0 3-.57 24.26 24.26 0 0 0 3.46-1.48h1.83v29.61a18.73 18.73 0 0 0 .09 2.49 2.12 2.12 0 0 0 .83 1.3 4.88 4.88 0 0 0 2.28.36h1.05v2l-8.48.4v-3.89a17 17 0 0 1-4.57 3.15 10.71 10.71 0 0 1-4.29.93 9.11 9.11 0 0 1-7.34-3.55 13.08 13.08 0 0 1-2.91-8.56 13.83 13.83 0 0 1 1.55-6.53 11.22 11.22 0 0 1 4.14-4.48 10.4 10.4 0 0 1 5.56-1.56 11.42 11.42 0 0 1 4.3.8 11.18 11.18 0 0 1 3.61 2.42V91.7Zm4.1 25.78v-9.23a6.37 6.37 0 0 0-.74-3.24 6.19 6.19 0 0 0-2.44-2.18 7.1 7.1 0 0 0-7.4.23 7.75 7.75 0 0 0-2.81 3.34 14.25 14.25 0 0 0-.07 10.36 7.56 7.56 0 0 0 2.53 3.24 5.58 5.58 0 0 0 3.24 1.11 9.09 9.09 0 0 0 3.71-.94 14.79 14.79 0 0 0 3.98-2.69ZM358.84 89.33h1.76l3.09 11.35-2.27.63a40.06 40.06 0 0 0-2.78-5.31 11.56 11.56 0 0 0-3.89-3.44 10.55 10.55 0 0 0-5.14-1.27 11.06 11.06 0 0 0-6.07 1.77 12.71 12.71 0 0 0-4.49 5.19 16.86 16.86 0 0 0-1.72 7.7 17.13 17.13 0 0 0 1.74 7.84 12.87 12.87 0 0 0 4.73 5.3 11.87 11.87 0 0 0 6.42 1.86 13.8 13.8 0 0 0 6.64-1.86 18.19 18.19 0 0 0 5.88-5.22l1.95 1.34a20 20 0 0 1-3.27 3.81 19.07 19.07 0 0 1-5.78 3.71A17.65 17.65 0 0 1 349 124a16.07 16.07 0 0 1-12.89-5.88 17.52 17.52 0 0 1-4.1-11.62 18 18 0 0 1 2.27-9 17.18 17.18 0 0 1 6.26-6.38 16.59 16.59 0 0 1 8.61-2.37 15 15 0 0 1 4.58.67 16.57 16.57 0 0 1 4.28 2.16ZM366.82 99.83l9.25-.37v15.72a7.92 7.92 0 0 0 .57 3.3 4.23 4.23 0 0 0 1.76 1.89 5.52 5.52 0 0 0 2.77.67 11.5 11.5 0 0 0 4.43-1.04 19.72 19.72 0 0 0 4.95-3.12v-11.39a6.6 6.6 0 0 0-.27-2.37 2 2 0 0 0-.95-.9 5 5 0 0 0-2.15-.34h-1.78v-2l9.25-.37v18.21a7 7 0 0 0 .29 2.43 1.81 1.81 0 0 0 .87 1 6.07 6.07 0 0 0 2.31.28h.75v2l-8.1.42v-4.52a25.12 25.12 0 0 1-5.84 3.68 13.38 13.38 0 0 1-5.05 1 9.72 9.72 0 0 1-3.31-.51 6.92 6.92 0 0 1-2.46-1.54 6.79 6.79 0 0 1-1.63-2.47 8.45 8.45 0 0 1-.56-3.07v-11.15a5.64 5.64 0 0 0-.27-2.09 2 2 0 0 0-.89-1 3.39 3.39 0 0 0-1.7-.35h-2.24ZM401.88 91.65v-2a15.17 15.17 0 0 0 6.47-2.05h1.8v30.05a6.75 6.75 0 0 0 .25 2.4 2.06 2.06 0 0 0 .93 1 5.77 5.77 0 0 0 2.34.31h.78v2h-12.57v-2h1.27a3.55 3.55 0 0 0 1.79-.36 2 2 0 0 0 .85-1 7.72 7.72 0 0 0 .26-2.53V91.65ZM423.58 91.52h1.73v8.31h7.26v2.44h-7.26V117a7.71 7.71 0 0 0 .33 2.68 2.82 2.82 0 0 0 1.13 1.32 3.21 3.21 0 0 0 1.77.51 8.91 8.91 0 0 0 5.12-2.07v2.37a11.41 11.41 0 0 1-6.48 2.17 6.86 6.86 0 0 1-3.36-.83 4.71 4.71 0 0 1-2.06-2 9.87 9.87 0 0 1-.55-3.91v-15h-4.27v-2a8.4 8.4 0 0 0 3.32-1.44 7.39 7.39 0 0 0 2.05-2.54 17.06 17.06 0 0 0 1.27-4.74ZM434.81 99.83l9.25-.37v15.72a7.91 7.91 0 0 0 .58 3.3 4.18 4.18 0 0 0 1.76 1.89 5.49 5.49 0 0 0 2.77.67 11.54 11.54 0 0 0 4.43-1.04 19.68 19.68 0 0 0 4.94-3.12v-11.39a6.6 6.6 0 0 0-.27-2.37 2 2 0 0 0-.95-.9 5 5 0 0 0-2.15-.34h-1.78v-2l9.25-.37v18.21a6.72 6.72 0 0 0 .3 2.43 1.76 1.76 0 0 0 .86 1 6.11 6.11 0 0 0 2.31.28h.76v2l-8.11.42v-4.52a25.09 25.09 0 0 1-5.83 3.68 13.43 13.43 0 0 1-5.06 1 9.61 9.61 0 0 1-3.3-.51 7 7 0 0 1-2.47-1.54 6.64 6.64 0 0 1-1.62-2.47 8.25 8.25 0 0 1-.57-3.07v-11.15a5.92 5.92 0 0 0-.26-2.09 2.06 2.06 0 0 0-.9-1 3.37 3.37 0 0 0-1.69-.35h-2.25ZM470.11 103.32v-2a14.2 14.2 0 0 0 3.17-.59 17 17 0 0 0 3.16-1.46h1.83v4.61a13.48 13.48 0 0 1 4-3.37 8.81 8.81 0 0 1 4.12-1.24 4.39 4.39 0 0 1 2.86.85 2.6 2.6 0 0 1 1.05 2.08 2.09 2.09 0 0 1-.7 1.55 2.3 2.3 0 0 1-1.67.67 2.16 2.16 0 0 1-.76-.12 4.81 4.81 0 0 1-.92-.54 4.5 4.5 0 0 0-2.25-.88 4.77 4.77 0 0 0-2.69 1 15.21 15.21 0 0 0-2.9 2.59v11.25a7.88 7.88 0 0 0 .16 2 2.13 2.13 0 0 0 .52.9 2.07 2.07 0 0 0 .91.55 6.74 6.74 0 0 0 1.88.17h.8v2h-12.59v-2h1.05a4.57 4.57 0 0 0 1.95-.26 2.31 2.31 0 0 0 .94-1 6 6 0 0 0 .31-2.33v-14.4ZM509.71 109.25v-2.66a4.56 4.56 0 0 0-1.51-3.87 6.94 6.94 0 0 0-4.28-1.16 7.82 7.82 0 0 0-2.4.33 4.32 4.32 0 0 0-1.65.9 3.44 3.44 0 0 0-.92 1.31c-.08.18-.28.87-.59 2.07-.37 1.47-1.13 2.2-2.27 2.2a2 2 0 0 1-1.57-.65 2.45 2.45 0 0 1-.6-1.74 5.15 5.15 0 0 1 1.19-3.16 8.69 8.69 0 0 1 3.65-2.57 15.27 15.27 0 0 1 5.8-1 13.43 13.43 0 0 1 5.35 1 6.74 6.74 0 0 1 3.27 2.77 9.76 9.76 0 0 1 .73 4.54v9.39a15.42 15.42 0 0 0 .13 2.6 2.75 2.75 0 0 0 .94 1.58 2.71 2.71 0 0 0 1.74.52 9 9 0 0 0 2.69-.51v2.12a13.38 13.38 0 0 1-3.64.59 7.58 7.58 0 0 1-2.92-.49 4.67 4.67 0 0 1-1.94-1.43 4.82 4.82 0 0 1-1-2.23 22 22 0 0 1-5.29 3.22 13 13 0 0 1-4.79.93 8 8 0 0 1-5.47-1.83 5.54 5.54 0 0 1-2.1-4.3 5.66 5.66 0 0 1 .77-2.83 7.26 7.26 0 0 1 2.35-2.37 16.22 16.22 0 0 1 5-1.8 79.4 79.4 0 0 1 9.33-1.47Zm0 2.12q-5.67.84-7 1.15a13.12 13.12 0 0 0-3.81 1.34 4.8 4.8 0 0 0-1.64 1.58 3.45 3.45 0 0 0 .06 3.64 3.83 3.83 0 0 0 1.55 1.4 4.64 4.64 0 0 0 2.13.52 10.39 10.39 0 0 0 3.59-.75 25.44 25.44 0 0 0 5.13-3ZM520.87 91.65v-2a15.17 15.17 0 0 0 6.47-2.05h1.81v30.05a7.1 7.1 0 0 0 .24 2.4 2.06 2.06 0 0 0 .93 1 5.84 5.84 0 0 0 2.34.31h.78v2h-12.57v-2h1.27a3.5 3.5 0 0 0 1.79-.36 2 2 0 0 0 .86-1 8 8 0 0 0 .26-2.53V91.65ZM579.81 89.33h1.76l3.09 11.35-2.27.63a38.86 38.86 0 0 0-2.78-5.31 11.56 11.56 0 0 0-3.89-3.44 10.55 10.55 0 0 0-5.14-1.27 11.06 11.06 0 0 0-6.07 1.77 12.78 12.78 0 0 0-4.51 5.23 16.86 16.86 0 0 0-1.72 7.7 17.13 17.13 0 0 0 1.74 7.84 12.94 12.94 0 0 0 4.73 5.3 11.87 11.87 0 0 0 6.42 1.86 13.77 13.77 0 0 0 6.64-1.86 18.19 18.19 0 0 0 5.88-5.22l2 1.34a19.7 19.7 0 0 1-3.28 3.81 19.07 19.07 0 0 1-5.78 3.71A17.6 17.6 0 0 1 570 124a16.06 16.06 0 0 1-12.89-5.88 17.47 17.47 0 0 1-4.11-11.65 18 18 0 0 1 2.27-9 17.21 17.21 0 0 1 6.27-6.38 16.56 16.56 0 0 1 8.6-2.37 15 15 0 0 1 4.58.67 16.41 16.41 0 0 1 4.28 2.18ZM610 117.09l1.56 1.27a21.07 21.07 0 0 1-3.46 3.36 11.34 11.34 0 0 1-3.16 1.75 11 11 0 0 1-3.49.5 12 12 0 0 1-6.1-1.46 11.81 11.81 0 0 1-4.42-4.4 12.71 12.71 0 0 1-1.54-6.4 13.65 13.65 0 0 1 1.49-6.59 11 11 0 0 1 4.16-4.31 12 12 0 0 1 6.19-1.57 11.47 11.47 0 0 1 4.54.82 8.24 8.24 0 0 1 3.27 2.46 10.4 10.4 0 0 1 2 3.76 13.49 13.49 0 0 1 .39 3.21h-17.29c0 .8-.08 1.4-.08 1.79a13.28 13.28 0 0 0 1.08 5.49 7.81 7.81 0 0 0 2.84 3.55 7.26 7.26 0 0 0 4 1.14 8.1 8.1 0 0 0 3.69-.9 18.12 18.12 0 0 0 4.33-3.47Zm-3.13-9.87a9.26 9.26 0 0 0-1-3.32 4.79 4.79 0 0 0-1.9-1.71 6 6 0 0 0-2.77-.63 6.66 6.66 0 0 0-2.88.63 6.27 6.27 0 0 0-2.24 1.76 10.18 10.18 0 0 0-1.55 3.27ZM615.13 103.32v-2a17.82 17.82 0 0 0 3.25-.59 18 18 0 0 0 3.1-1.46h1.76v4.64a23.28 23.28 0 0 1 5.5-3.68 11.81 11.81 0 0 1 4.62-1 8.68 8.68 0 0 1 3.53.67 6.61 6.61 0 0 1 2.5 1.82 6 6 0 0 1 1.28 2.61 14 14 0 0 1 .2 2.74v10.74a6.7 6.7 0 0 0 .28 2.48 1.62 1.62 0 0 0 .89.79 10.86 10.86 0 0 0 3 .24v2h-12.55v-2h.68a6.16 6.16 0 0 0 2.4-.31 1.87 1.87 0 0 0 .91-.93 7 7 0 0 0 .28-2.49v-9a11.2 11.2 0 0 0-.45-3.85 3.71 3.71 0 0 0-1.54-1.75 5.1 5.1 0 0 0-2.74-.67 10.42 10.42 0 0 0-4.23 1 16.33 16.33 0 0 0-4.34 3v11.28a7.37 7.37 0 0 0 .28 2.54 1.91 1.91 0 0 0 .91 1 6.62 6.62 0 0 0 2.35.24h.71v2h-12.6v-2h.61a6.85 6.85 0 0 0 2.48-.3 1.78 1.78 0 0 0 .94-1.09 13.5 13.5 0 0 0 .14-2.68v-13.99ZM654.56 91.52h1.73v8.31h7.26v2.44h-7.26V117a8 8 0 0 0 .33 2.68 2.82 2.82 0 0 0 1.13 1.32 3.21 3.21 0 0 0 1.77.51 8.91 8.91 0 0 0 5.12-2.07v2.37a11.41 11.41 0 0 1-6.48 2.17 6.86 6.86 0 0 1-3.36-.83 4.71 4.71 0 0 1-2.06-2 9.87 9.87 0 0 1-.55-3.91v-15h-4.27v-2a8.4 8.4 0 0 0 3.32-1.44 7.39 7.39 0 0 0 2-2.54 17.06 17.06 0 0 0 1.32-4.74ZM688 117.09l1.56 1.27a21.45 21.45 0 0 1-3.45 3.36 11.62 11.62 0 0 1-3.16 1.75 11.15 11.15 0 0 1-3.5.5 11.55 11.55 0 0 1-10.52-5.86 12.82 12.82 0 0 1-1.54-6.4 13.65 13.65 0 0 1 1.49-6.59 11 11 0 0 1 4.17-4.31 11.93 11.93 0 0 1 6.18-1.57 11.52 11.52 0 0 1 4.55.82 8.38 8.38 0 0 1 3.27 2.46 10.53 10.53 0 0 1 2 3.76 13.49 13.49 0 0 1 .39 3.21h-17.3c0 .8-.07 1.4-.07 1.79a13.28 13.28 0 0 0 1.07 5.49 7.83 7.83 0 0 0 2.85 3.55 7.23 7.23 0 0 0 4 1.14 8.1 8.1 0 0 0 3.69-.9 17.74 17.74 0 0 0 4.32-3.47Zm-3.13-9.87a9.49 9.49 0 0 0-1-3.32 4.89 4.89 0 0 0-1.91-1.71 6 6 0 0 0-2.77-.63 6.69 6.69 0 0 0-2.88.63 6.15 6.15 0 0 0-2.23 1.76 10 10 0 0 0-1.55 3.27ZM693.09 103.32v-2a14.11 14.11 0 0 0 3.16-.59 17.1 17.1 0 0 0 3.17-1.46h1.82v4.61a13.61 13.61 0 0 1 4-3.37 8.84 8.84 0 0 1 4.13-1.24 4.38 4.38 0 0 1 2.85.85 2.6 2.6 0 0 1 1 2.08 2.12 2.12 0 0 1-.69 1.55 2.34 2.34 0 0 1-1.68.67 2.11 2.11 0 0 1-.75-.12 5.14 5.14 0 0 1-.93-.54 4.46 4.46 0 0 0-2.25-.88 4.75 4.75 0 0 0-2.68 1 15 15 0 0 0-2.91 2.59v11.25a8.4 8.4 0 0 0 .16 2 2.15 2.15 0 0 0 .53.9 2 2 0 0 0 .9.55 6.79 6.79 0 0 0 1.88.17h.81v2h-12.55v-2h1.05a4.59 4.59 0 0 0 2-.26 2.37 2.37 0 0 0 .94-1 6.2 6.2 0 0 0 .3-2.33v-14.4Z" transform="translate(.01)"/></svg>